# xmcd
#
# Track frame offsets: 
#        150
#        13613
#        30137
#        41931
#        57663
#        70264
#        84828
#        96612
#        112028
#        127710
#        152651
#
# Disc length: 2686 seconds
#
# Revision: 4
# Processed by: cddbd v1.5.2PL0 Copyright (c) Steve Scherf et al.
# Submitted via: ExactAudioCopyFreeDBPlugin 1.0
#
DISCID=890a7c0b
DTITLE=Justin Moore - Justin Moore
DYEAR=2009
DGENRE=Country
TTITLE0=How I Got To Be This Way
TTITLE1=Small Town USA
TTITLE2=Backwoods
TTITLE3=Like There's No Tomorrow
TTITLE4=Good Ole American Way
TTITLE5=I Could Kick Your Ass
TTITLE6=Back That Thing Up
TTITLE7=The Only Place That I Call Home
TTITLE8=Grandpa
TTITLE9=Hank It
TTITLE10=DATA
EXTD=
EXTT0=
EXTT1=
EXTT2=
EXTT3=
EXTT4=
EXTT5=
EXTT6=
EXTT7=
EXTT8=
EXTT9=
EXTT10=
PLAYORDER=
